<mxfile host="app.diagrams.net" modified="2022-07-22T08:14:54.998Z" agent="5.0 (Windows NT 10.0; Win64; x64) AppleWebKit/537.36 (KHTML, like Gecko) Chrome/103.0.0.0 Safari/537.36" etag="t7GGfB_T0hTJxKHRQGgy" version="20.1.3" type="github">
  <diagram id="C5RBs43oDa-KdzZeNtuy" name="Page-1">
    <mxGraphModel dx="1422" dy="762" grid="1" gridSize="10" guides="1" tooltips="1" connect="1" arrows="1" fold="1" page="1" pageScale="1" pageWidth="827" pageHeight="1169" math="0" shadow="0">
      <root>
        <mxCell id="WIyWlLk6GJQsqaUBKTNV-0" />
        <mxCell id="WIyWlLk6GJQsqaUBKTNV-1" parent="WIyWlLk6GJQsqaUBKTNV-0" />
        <mxCell id="blJ2LqI24m_JuA1YKkw8-2" style="edgeStyle=orthogonalEdgeStyle;rounded=0;orthogonalLoop=1;jettySize=auto;html=1;exitX=0.5;exitY=1;exitDx=0;exitDy=0;exitPerimeter=0;fontStyle=1;fontFamily=Garamond;" edge="1" parent="WIyWlLk6GJQsqaUBKTNV-1" source="blJ2LqI24m_JuA1YKkw8-0" target="blJ2LqI24m_JuA1YKkw8-1">
          <mxGeometry relative="1" as="geometry" />
        </mxCell>
        <mxCell id="blJ2LqI24m_JuA1YKkw8-0" value="&lt;span style=&quot;font-size: 14px;&quot;&gt;医生 APP 端&lt;/span&gt;&lt;br style=&quot;font-size: 14px;&quot;&gt;&lt;span style=&quot;font-size: 14px;&quot;&gt;入驻开始&lt;/span&gt;" style="strokeWidth=2;html=1;shape=mxgraph.flowchart.terminator;whiteSpace=wrap;fontStyle=1;fontFamily=Garamond;" vertex="1" parent="WIyWlLk6GJQsqaUBKTNV-1">
          <mxGeometry x="375" y="70" width="100" height="60" as="geometry" />
        </mxCell>
        <mxCell id="blJ2LqI24m_JuA1YKkw8-6" style="edgeStyle=orthogonalEdgeStyle;rounded=0;orthogonalLoop=1;jettySize=auto;html=1;exitX=0.5;exitY=1;exitDx=0;exitDy=0;entryX=0.5;entryY=0;entryDx=0;entryDy=0;fontStyle=1;fontFamily=Garamond;" edge="1" parent="WIyWlLk6GJQsqaUBKTNV-1" source="blJ2LqI24m_JuA1YKkw8-1" target="blJ2LqI24m_JuA1YKkw8-5">
          <mxGeometry relative="1" as="geometry" />
        </mxCell>
        <mxCell id="blJ2LqI24m_JuA1YKkw8-1" value="医生微信扫描&lt;br&gt;经济人二维码" style="verticalLabelPosition=middle;verticalAlign=middle;html=1;shape=trapezoid;perimeter=trapezoidPerimeter;whiteSpace=wrap;size=0.23;arcSize=10;flipV=1;labelPosition=center;align=center;fontStyle=1;fontFamily=Garamond;" vertex="1" parent="WIyWlLk6GJQsqaUBKTNV-1">
          <mxGeometry x="375" y="160" width="100" height="60" as="geometry" />
        </mxCell>
        <mxCell id="blJ2LqI24m_JuA1YKkw8-10" style="edgeStyle=orthogonalEdgeStyle;rounded=0;orthogonalLoop=1;jettySize=auto;html=1;entryX=0.5;entryY=0;entryDx=0;entryDy=0;fontStyle=1;fontFamily=Garamond;" edge="1" parent="WIyWlLk6GJQsqaUBKTNV-1" source="blJ2LqI24m_JuA1YKkw8-5" target="blJ2LqI24m_JuA1YKkw8-8">
          <mxGeometry relative="1" as="geometry" />
        </mxCell>
        <mxCell id="blJ2LqI24m_JuA1YKkw8-5" value="" style="verticalLabelPosition=bottom;verticalAlign=top;html=1;shape=offPageConnector;rounded=0;size=0.3333333333333333;fontStyle=1;fontFamily=Garamond;" vertex="1" parent="WIyWlLk6GJQsqaUBKTNV-1">
          <mxGeometry x="390" y="250" width="70" height="60" as="geometry" />
        </mxCell>
        <mxCell id="blJ2LqI24m_JuA1YKkw8-7" value="&lt;span style=&quot;&quot;&gt;跳转医生APP H5&lt;/span&gt;&lt;br style=&quot;&quot;&gt;&lt;span style=&quot;&quot;&gt;下载页面&lt;/span&gt;" style="text;html=1;strokeColor=none;fillColor=none;align=center;verticalAlign=middle;whiteSpace=wrap;rounded=0;fontStyle=1;fontFamily=Garamond;" vertex="1" parent="WIyWlLk6GJQsqaUBKTNV-1">
          <mxGeometry x="395" y="260" width="60" height="30" as="geometry" />
        </mxCell>
        <mxCell id="blJ2LqI24m_JuA1YKkw8-26" style="edgeStyle=orthogonalEdgeStyle;rounded=0;orthogonalLoop=1;jettySize=auto;html=1;exitX=0.5;exitY=1;exitDx=0;exitDy=0;entryX=0.5;entryY=0;entryDx=0;entryDy=0;fontStyle=1;fontFamily=Garamond;" edge="1" parent="WIyWlLk6GJQsqaUBKTNV-1" source="blJ2LqI24m_JuA1YKkw8-8" target="blJ2LqI24m_JuA1YKkw8-11">
          <mxGeometry relative="1" as="geometry" />
        </mxCell>
        <mxCell id="blJ2LqI24m_JuA1YKkw8-8" value="下载医生端 APP&lt;br&gt;并打开" style="verticalLabelPosition=middle;verticalAlign=middle;html=1;shape=trapezoid;perimeter=trapezoidPerimeter;whiteSpace=wrap;size=0.23;arcSize=10;flipV=1;labelPosition=center;align=center;fontStyle=1;fontFamily=Garamond;" vertex="1" parent="WIyWlLk6GJQsqaUBKTNV-1">
          <mxGeometry x="375" y="340" width="100" height="60" as="geometry" />
        </mxCell>
        <mxCell id="blJ2LqI24m_JuA1YKkw8-29" style="edgeStyle=orthogonalEdgeStyle;rounded=0;orthogonalLoop=1;jettySize=auto;html=1;entryX=1;entryY=0.5;entryDx=0;entryDy=0;entryPerimeter=0;fontStyle=1;fontFamily=Garamond;" edge="1" parent="WIyWlLk6GJQsqaUBKTNV-1" source="blJ2LqI24m_JuA1YKkw8-11" target="blJ2LqI24m_JuA1YKkw8-27">
          <mxGeometry relative="1" as="geometry" />
        </mxCell>
        <mxCell id="blJ2LqI24m_JuA1YKkw8-11" value="使用扫码时&lt;br&gt;所使用的的&lt;br&gt;微信登录" style="rounded=1;whiteSpace=wrap;html=1;absoluteArcSize=1;arcSize=14;strokeWidth=2;fontStyle=1;fontFamily=Garamond;" vertex="1" parent="WIyWlLk6GJQsqaUBKTNV-1">
          <mxGeometry x="375" y="430" width="100" height="100" as="geometry" />
        </mxCell>
        <mxCell id="blJ2LqI24m_JuA1YKkw8-12" style="edgeStyle=orthogonalEdgeStyle;rounded=0;orthogonalLoop=1;jettySize=auto;html=1;exitX=0.5;exitY=1;exitDx=0;exitDy=0;fontFamily=Garamond;fontStyle=1;fontSize=14;" edge="1" parent="WIyWlLk6GJQsqaUBKTNV-1" target="blJ2LqI24m_JuA1YKkw8-17">
          <mxGeometry relative="1" as="geometry">
            <mxPoint x="423" y="530" as="sourcePoint" />
          </mxGeometry>
        </mxCell>
        <mxCell id="blJ2LqI24m_JuA1YKkw8-13" style="edgeStyle=orthogonalEdgeStyle;rounded=0;orthogonalLoop=1;jettySize=auto;html=1;exitX=1;exitY=0.5;exitDx=0;exitDy=0;exitPerimeter=0;entryX=1;entryY=0.5;entryDx=0;entryDy=0;entryPerimeter=0;fontFamily=Garamond;fontStyle=1;fontSize=14;" edge="1" parent="WIyWlLk6GJQsqaUBKTNV-1" source="blJ2LqI24m_JuA1YKkw8-17" target="blJ2LqI24m_JuA1YKkw8-18">
          <mxGeometry relative="1" as="geometry">
            <mxPoint x="520" y="750" as="targetPoint" />
            <Array as="points">
              <mxPoint x="520" y="620" />
              <mxPoint x="520" y="1090" />
            </Array>
          </mxGeometry>
        </mxCell>
        <mxCell id="blJ2LqI24m_JuA1YKkw8-14" value="已认证" style="edgeLabel;html=1;align=center;verticalAlign=middle;resizable=0;points=[];fontFamily=Garamond;fontStyle=1;fontSize=14;" vertex="1" connectable="0" parent="blJ2LqI24m_JuA1YKkw8-13">
          <mxGeometry x="-0.0132" y="2" relative="1" as="geometry">
            <mxPoint y="20" as="offset" />
          </mxGeometry>
        </mxCell>
        <mxCell id="blJ2LqI24m_JuA1YKkw8-15" style="edgeStyle=orthogonalEdgeStyle;rounded=0;orthogonalLoop=1;jettySize=auto;html=1;fontFamily=Garamond;fontStyle=1;fontSize=14;" edge="1" parent="WIyWlLk6GJQsqaUBKTNV-1" source="blJ2LqI24m_JuA1YKkw8-17">
          <mxGeometry relative="1" as="geometry">
            <mxPoint x="330" y="750" as="targetPoint" />
          </mxGeometry>
        </mxCell>
        <mxCell id="blJ2LqI24m_JuA1YKkw8-16" value="未认证" style="edgeLabel;html=1;align=center;verticalAlign=middle;resizable=0;points=[];fontFamily=Garamond;fontStyle=1;fontSize=14;" vertex="1" connectable="0" parent="blJ2LqI24m_JuA1YKkw8-15">
          <mxGeometry x="0.0867" relative="1" as="geometry">
            <mxPoint y="9" as="offset" />
          </mxGeometry>
        </mxCell>
        <mxCell id="blJ2LqI24m_JuA1YKkw8-17" value="是否认证" style="strokeWidth=2;html=1;shape=mxgraph.flowchart.decision;whiteSpace=wrap;fontFamily=Garamond;fontStyle=1;fontSize=14;" vertex="1" parent="WIyWlLk6GJQsqaUBKTNV-1">
          <mxGeometry x="373" y="570" width="100" height="100" as="geometry" />
        </mxCell>
        <mxCell id="blJ2LqI24m_JuA1YKkw8-18" value="医生APP端&lt;br style=&quot;font-size: 14px;&quot;&gt;入驻结束" style="strokeWidth=2;html=1;shape=mxgraph.flowchart.terminator;whiteSpace=wrap;fontFamily=Garamond;fontStyle=1;fontSize=14;" vertex="1" parent="WIyWlLk6GJQsqaUBKTNV-1">
          <mxGeometry x="385" y="1060" width="100" height="60" as="geometry" />
        </mxCell>
        <mxCell id="blJ2LqI24m_JuA1YKkw8-19" style="edgeStyle=orthogonalEdgeStyle;rounded=0;orthogonalLoop=1;jettySize=auto;html=1;exitX=1;exitY=0.5;exitDx=0;exitDy=0;exitPerimeter=0;fontFamily=Garamond;fontStyle=1;fontSize=14;" edge="1" parent="WIyWlLk6GJQsqaUBKTNV-1" source="blJ2LqI24m_JuA1YKkw8-23" target="blJ2LqI24m_JuA1YKkw8-18">
          <mxGeometry relative="1" as="geometry" />
        </mxCell>
        <mxCell id="blJ2LqI24m_JuA1YKkw8-20" value="审核通过" style="edgeLabel;html=1;align=center;verticalAlign=middle;resizable=0;points=[];fontFamily=Garamond;fontStyle=1;fontSize=14;" vertex="1" connectable="0" parent="blJ2LqI24m_JuA1YKkw8-19">
          <mxGeometry x="0.01" y="1" relative="1" as="geometry">
            <mxPoint x="-1" y="29" as="offset" />
          </mxGeometry>
        </mxCell>
        <mxCell id="blJ2LqI24m_JuA1YKkw8-21" style="edgeStyle=orthogonalEdgeStyle;rounded=0;orthogonalLoop=1;jettySize=auto;html=1;entryX=0;entryY=0.65;entryDx=0;entryDy=0;entryPerimeter=0;fontFamily=Garamond;fontStyle=1;fontSize=14;" edge="1" parent="WIyWlLk6GJQsqaUBKTNV-1" source="blJ2LqI24m_JuA1YKkw8-23" target="blJ2LqI24m_JuA1YKkw8-18">
          <mxGeometry relative="1" as="geometry">
            <Array as="points">
              <mxPoint x="220" y="910" />
              <mxPoint x="220" y="1099" />
            </Array>
          </mxGeometry>
        </mxCell>
        <mxCell id="blJ2LqI24m_JuA1YKkw8-22" value="审核未通过" style="edgeLabel;html=1;align=center;verticalAlign=middle;resizable=0;points=[];fontFamily=Garamond;fontStyle=1;fontSize=14;" vertex="1" connectable="0" parent="blJ2LqI24m_JuA1YKkw8-21">
          <mxGeometry x="-0.4165" y="1" relative="1" as="geometry">
            <mxPoint y="14" as="offset" />
          </mxGeometry>
        </mxCell>
        <mxCell id="blJ2LqI24m_JuA1YKkw8-23" value="医生资质审核" style="strokeWidth=2;html=1;shape=mxgraph.flowchart.decision;whiteSpace=wrap;fontFamily=Garamond;fontStyle=1;fontSize=14;" vertex="1" parent="WIyWlLk6GJQsqaUBKTNV-1">
          <mxGeometry x="275" y="860" width="110" height="100" as="geometry" />
        </mxCell>
        <mxCell id="blJ2LqI24m_JuA1YKkw8-24" style="edgeStyle=orthogonalEdgeStyle;rounded=0;orthogonalLoop=1;jettySize=auto;html=1;entryX=0.5;entryY=0;entryDx=0;entryDy=0;entryPerimeter=0;fontFamily=Garamond;fontStyle=1;fontSize=14;" edge="1" parent="WIyWlLk6GJQsqaUBKTNV-1" source="blJ2LqI24m_JuA1YKkw8-25" target="blJ2LqI24m_JuA1YKkw8-23">
          <mxGeometry relative="1" as="geometry" />
        </mxCell>
        <mxCell id="blJ2LqI24m_JuA1YKkw8-25" value="上传医生&lt;br style=&quot;font-size: 14px;&quot;&gt;基本资料&lt;br style=&quot;font-size: 14px;&quot;&gt;职业信息" style="verticalLabelPosition=middle;verticalAlign=middle;html=1;shape=trapezoid;perimeter=trapezoidPerimeter;whiteSpace=wrap;size=0.23;arcSize=10;flipV=1;labelPosition=center;align=center;fontFamily=Garamond;fontStyle=1;fontSize=14;" vertex="1" parent="WIyWlLk6GJQsqaUBKTNV-1">
          <mxGeometry x="272.5" y="740" width="115" height="70" as="geometry" />
        </mxCell>
        <mxCell id="blJ2LqI24m_JuA1YKkw8-27" value="同一台手机上可能登陆了多个微信号" style="shape=tape;whiteSpace=wrap;html=1;strokeWidth=2;size=0.19;fontStyle=1;fontFamily=Garamond;" vertex="1" parent="WIyWlLk6GJQsqaUBKTNV-1">
          <mxGeometry x="230" y="447.5" width="100" height="65" as="geometry" />
        </mxCell>
      </root>
    </mxGraphModel>
  </diagram>
</mxfile>
